# Nv = 112  Nvt = 0  Nvn = 112  Npoly = 212
# Exported from Wings 3D 2.1.7
mtllib AntennaPlate.mtl
o Part__Feature002
#52 vertices, 100 faces
v 0.39721629 -0.40278251 -3.0835940e-3
v 0.39677535 -0.40322345 -2.0520640e-3
v -0.40322405 0.39677595 -2.0520640e-3
v -0.40278311 0.39721689 -3.0835940e-3
v 0.39781897 -0.40217983 -3.9359170e-3
v -0.40218043 0.39781957 -3.9359170e-3
v 0.40249940 -0.39749940 -3.5355340e-3
v -0.39750000 0.40250000 -3.5355340e-3
v -0.39697436 0.40302564 -2.5866890e-3
v 0.39854837 -0.40145043 -4.5594990e-3
v 0.40302504 -0.39697375 -2.5866890e-3
v -0.39662455 0.40337545 -1.4875150e-3
v -0.40145103 0.39854897 -4.5594990e-3
v 0.39936210 -0.40063670 -4.9181000e-3
v 0.40337485 -0.39662395 -1.4875150e-3
v -0.39647092 0.40352908 -3.0189200e-4
v -0.40063730 0.39936270 -4.9181000e-3
v 0.40021287 -0.39978593 -4.9908780e-3
v 0.40352848 -0.39647032 -3.0189200e-4
v -0.39652238 0.40347762 9.0127500e-4
v -0.39978653 0.40021347 -4.9908780e-3
v 0.40347702 -0.39652178 9.0127500e-4
v -0.39677595 0.40322405 2.0520640e-3
v 0.40105123 -0.39894757 -4.7736040e-3
v -0.39894817 0.40105183 -4.7736040e-3
v 0.40182846 -0.39817033 -4.2789060e-3
v -0.39817094 0.40182907 -4.2789060e-3
v 0.40322345 -0.39677535 2.0520640e-3
v -0.39721689 0.40278311 3.0835940e-3
v 0.40278251 -0.39721629 3.0835940e-3
v -0.39781957 0.40218043 3.9359170e-3
v 0.40217983 -0.39781897 3.9359170e-3
v -0.39854897 0.40145103 4.5594990e-3
v 0.40145043 -0.39854837 4.5594990e-3
v -0.39936270 0.40063730 4.9181000e-3
v 0.40063670 -0.39936210 4.9181000e-3
v -0.40021347 0.39978653 4.9908780e-3
v 0.39978593 -0.40021287 4.9908780e-3
v -0.40105183 0.39894817 4.7736040e-3
v 0.39894757 -0.40105123 4.7736040e-3
v -0.40182907 0.39817094 4.2789060e-3
v 0.39817033 -0.40182846 4.2789060e-3
v -0.40250000 0.39750000 3.5355340e-3
v 0.39749940 -0.40249940 3.5355340e-3
v 0.39697375 -0.40302504 2.5866890e-3
v -0.40302564 0.39697436 2.5866890e-3
v -0.40337545 0.39662455 1.4875150e-3
v 0.39662395 -0.40337485 1.4875150e-3
v 0.39647032 -0.40352848 3.0189200e-4
v -0.40352908 0.39647092 3.0189200e-4
v 0.39652178 -0.40347702 -9.0127500e-4
v -0.40347762 0.39652238 -9.0127500e-4
vn -8.2477384e-2 -0.87047253 -0.48525773
vn -0.15074795 -0.93874313 -0.30989740
vn -0.91925214 -0.13125697 -0.37114298
vn -0.84118373 -5.3188549e-2 -0.53812723
vn 0.29320524 -0.84080484 -0.45505814
vn -0.81390485 0.32010524 -0.48486238
vn 0.65754419 0.31217753 -0.68569733
vn 0.12847379 0.76463729 -0.63152538
vn -8.5900006e-2 0.91734442 -0.38871636
vn 0.27887195 -0.72437234 -0.63048802
vn 0.93819793 -6.5045979e-2 -0.33993184
vn 0.40652080 0.85635629 -0.31842541
vn -0.68761460 0.31562980 -0.65388378
vn 7.7509844e-2 -0.37232569 -0.92485988
vn 0.87248725 0.42265208 -0.24521666
vn -0.37497771 0.92619410 -3.9448808e-2
vn -0.31899196 0.13084358 -0.93868210
vn 0.57543908 -0.55857099 -0.59738457
vn 0.92754716 -0.37362429 -7.8205593e-3
vn 0.43883073 0.88866626 0.13304082
vn -0.52446087 0.60954923 -0.59446659
vn 0.87889240 0.42905720 0.20846597
vn -0.27147097 0.94328532 0.19109245
vn 0.39831222 -5.1523288e-2 -0.91580168
vn 2.4321233e-4 0.45007872 -0.89298885
vn 0.77077876 -0.36323122 -0.52341493
vn -0.33398727 0.80002282 -0.49841347
vn 0.93126667 -0.28348934 0.22885844
vn 0.31908380 0.76891932 0.55402943
vn 0.73547972 0.28564453 0.61439139
vn -1.3484353e-2 0.77451081 0.63241694
vn 0.73712671 -5.0868488e-2 0.67383723
vn -0.55227260 0.77295227 0.31231357
vn 0.75474409 -0.57048090 0.32390262
vn -0.26488737 0.52310783 0.81005733
vn 0.47639440 -0.31160081 0.82216380
vn -0.23830011 0.21153541 0.94787437
vn 0.15741260 -0.29242292 0.94324446
vn -0.70102661 0.51372968 0.49461451
vn 0.48577112 -0.72898512 0.48229360
vn -0.54824698 -9.8411478e-2 0.83050613
vn -0.14481324 -0.59464874 0.79083626
vn -0.85408337 0.14956882 0.49816740
vn 0.41107653 -0.85567611 0.31437952
vn -0.41412341 -0.75949007 0.50167383
vn -0.85852917 -0.22236566 0.46204023
vn -0.92101198 -0.28484851 0.26570331
vn 2.6215050e-2 -0.97743672 0.20959539
vn 0.14665350 -0.98735643 6.0166683e-2
vn -0.98941970 0.14459041 1.1927567e-2
vn -0.18735995 -0.97535521 -0.11652668
vn -0.96679466 -0.17879948 -0.18258925
g Part__Feature002_color_4c4c4c
usemtl color_4c4c4c
s 1
f 1//1 34//34 2//2
f 2//2 3//3 1//1
f 2//2 52//52 3//3
f 3//3 4//4 1//1
f 3//3 33//33 4//4
f 3//3 52//52 33//33
f 4//4 5//5 1//1
f 4//4 6//6 5//5
f 4//4 33//33 6//6
f 5//5 34//34 1//1
f 6//6 10//10 5//5
f 6//6 13//13 10//10
f 6//6 16//16 13//13
f 6//6 23//23 16//16
f 6//6 33//33 23//23
f 7//7 27//27 8//8
f 8//8 9//9 7//7
f 8//8 27//27 9//9
f 9//9 11//11 7//7
f 9//9 12//12 11//11
f 9//9 16//16 12//12
f 9//9 27//27 16//16
f 10//10 19//19 5//5
f 11//11 26//26 7//7
f 12//12 15//15 11//11
f 12//12 16//16 15//15
f 13//13 14//14 10//10
f 13//13 17//17 14//14
f 13//13 21//21 17//17
f 14//14 18//18 10//10
f 15//15 19//19 11//11
f 16//16 19//19 15//15
f 16//16 20//20 19//19
f 16//16 21//21 13//13
f 16//16 23//23 20//20
f 16//16 27//27 21//21
f 17//17 18//18 14//14
f 17//17 21//21 18//18
f 18//18 19//19 10//10
f 18//18 26//26 19//19
f 19//19 26//26 11//11
f 19//19 28//28 5//5
f 20//20 22//22 19//19
f 20//20 23//23 22//22
f 21//21 24//24 18//18
f 21//21 25//25 24//24
f 21//21 27//27 25//25
f 22//22 28//28 19//19
f 23//23 28//28 22//22
f 23//23 29//29 28//28
f 23//23 31//31 29//29
f 23//23 33//33 31//31
f 24//24 26//26 18//18
f 25//25 26//26 24//24
f 25//25 27//27 26//26
f 26//26 27//27 7//7
f 28//28 34//34 5//5
f 29//29 30//30 28//28
f 29//29 31//31 30//30
f 30//30 32//32 28//28
f 31//31 32//32 30//30
f 31//31 33//33 32//32
f 32//32 34//34 28//28
f 33//33 34//34 32//32
f 33//33 35//35 34//34
f 33//33 39//39 35//35
f 33//33 50//50 39//39
f 33//33 52//52 50//50
f 34//34 51//51 2//2
f 35//35 36//36 34//34
f 35//35 37//37 36//36
f 35//35 39//39 37//37
f 36//36 40//40 34//34
f 37//37 38//38 36//36
f 37//37 39//39 38//38
f 38//38 40//40 36//36
f 39//39 40//40 38//38
f 39//39 41//41 40//40
f 39//39 43//43 41//41
f 39//39 50//50 43//43
f 40//40 49//49 34//34
f 41//41 42//42 40//40
f 41//41 43//43 42//42
f 42//42 44//44 40//40
f 43//43 44//44 42//42
f 43//43 45//45 44//44
f 43//43 46//46 45//45
f 43//43 47//47 46//46
f 43//43 50//50 47//47
f 44//44 49//49 40//40
f 45//45 48//48 44//44
f 46//46 47//47 45//45
f 47//47 48//48 45//45
f 47//47 49//49 48//48
f 47//47 50//50 49//49
f 48//48 49//49 44//44
f 49//49 51//51 34//34
f 50//50 51//51 49//49
f 50//50 52//52 51//51
f 51//51 52//52 2//2
o Part__Feature001
#8 vertices, 12 faces
v -0.40000000 -0.40000000 -5.0000000e-3
v -0.40000000 -0.40000000 5.0000000e-3
v -0.40000000 0.40000000 -5.0000000e-3
v -0.40000000 0.40000000 5.0000000e-3
v 0.40000000 -0.40000000 5.0000000e-3
v 0.40000000 -0.40000000 -5.0000000e-3
v 0.40000000 0.40000000 -5.0000000e-3
v 0.40000000 0.40000000 5.0000000e-3
vn -0.33333333 -0.66666667 -0.66666667
vn -0.66666667 -0.33333333 0.66666667
vn -0.66666667 0.66666667 -0.33333333
vn -0.57735027 0.57735027 0.57735027
vn 0.66666667 -0.66666667 0.33333333
vn 0.57735027 -0.57735027 -0.57735027
vn 0.66666667 0.33333333 -0.66666667
vn 0.33333333 0.66666667 0.66666667
g Part__Feature001_color_664600
usemtl color_664600
s 1
f 53//53 57//57 54//54
f 53//53 58//58 57//57
f 53//53 59//59 58//58
f 54//54 55//55 53//53
f 54//54 56//56 55//55
f 54//54 60//60 56//56
f 55//55 59//59 53//53
f 55//55 60//60 59//59
f 56//56 60//60 55//55
f 57//57 60//60 54//54
f 58//58 59//59 57//57
f 59//59 60//60 57//57
o Part__Feature
#52 vertices, 100 faces
v 0.40217983 0.39781897 3.9359170e-3
v 0.40145043 0.39854837 4.5594990e-3
v -0.39854897 -0.40145103 4.5594990e-3
v -0.39781957 -0.40218043 3.9359170e-3
v 0.40278251 0.39721629 3.0835940e-3
v -0.39721689 -0.40278311 3.0835940e-3
v 0.40249940 0.39749940 -3.5355340e-3
v -0.39750000 -0.40250000 -3.5355340e-3
v -0.39817094 -0.40182907 -4.2789060e-3
v 0.40322345 0.39677535 2.0520640e-3
v 0.40182846 0.39817033 -4.2789060e-3
v -0.39894817 -0.40105183 -4.7736040e-3
v -0.39677595 -0.40322405 2.0520640e-3
v 0.40347702 0.39652178 9.0127500e-4
v 0.40105123 0.39894757 -4.7736040e-3
v -0.39978653 -0.40021347 -4.9908780e-3
v -0.39652238 -0.40347762 9.0127500e-4
v 0.40352848 0.39647032 -3.0189200e-4
v 0.40021287 0.39978593 -4.9908780e-3
v -0.40063730 -0.39936270 -4.9181000e-3
v -0.39647092 -0.40352908 -3.0189200e-4
v 0.39936210 0.40063670 -4.9181000e-3
v -0.40145103 -0.39854897 -4.5594990e-3
v 0.40337485 0.39662395 -1.4875150e-3
v -0.39662455 -0.40337545 -1.4875150e-3
v 0.40302504 0.39697375 -2.5866890e-3
v -0.39697436 -0.40302564 -2.5866890e-3
v 0.39854837 0.40145043 -4.5594990e-3
v -0.40218043 -0.39781957 -3.9359170e-3
v 0.39781897 0.40217983 -3.9359170e-3
v -0.40278311 -0.39721689 -3.0835940e-3
v 0.39721629 0.40278251 -3.0835940e-3
v -0.40322405 -0.39677595 -2.0520640e-3
v 0.39677535 0.40322345 -2.0520640e-3
v -0.40347762 -0.39652238 -9.0127500e-4
v 0.39652178 0.40347702 -9.0127500e-4
v -0.40352908 -0.39647092 3.0189200e-4
v 0.39647032 0.40352848 3.0189200e-4
v -0.40337545 -0.39662455 1.4875150e-3
v 0.39662395 0.40337485 1.4875150e-3
v -0.40302564 -0.39697436 2.5866890e-3
v 0.39697375 0.40302504 2.5866890e-3
v -0.40250000 -0.39750000 3.5355340e-3
v 0.39749940 0.40249940 3.5355340e-3
v 0.39817033 0.40182846 4.2789060e-3
v -0.40182907 -0.39817094 4.2789060e-3
v -0.40105183 -0.39894817 4.7736040e-3
v 0.39894757 0.40105123 4.7736040e-3
v 0.39978593 0.40021287 4.9908780e-3
v -0.40021347 -0.39978653 4.9908780e-3
v 0.40063670 0.39936210 4.9181000e-3
v -0.39936270 -0.40063730 4.9181000e-3
vn 0.73712664 5.0868558e-2 0.67383730
vn 0.61312815 0.17486708 0.77038651
vn -0.13155984 -0.65643531 0.74282211
vn -1.3484353e-2 -0.77451081 0.63241694
vn 0.84118377 -5.3188696e-2 0.53812715
vn -0.22415570 -0.90985441 0.34916927
vn 0.77923898 0.61600665 -0.11542279
vn 0.12847379 -0.76463729 -0.63152538
vn -0.22675835 -0.77648604 -0.58792013
vn 0.91925214 -0.13125697 0.37114298
vn 0.54824698 -9.8411478e-2 -0.83050613
vn 2.4321233e-4 -0.45007872 -0.89298885
vn -3.9256498e-2 -0.96398791 0.26303277
vn 0.96679470 -0.17879924 0.18258929
vn 0.54586865 0.24212651 -0.80212353
vn -0.62269132 -0.67848048 -0.38976884
vn 0.43883073 -0.88866626 0.13304082
vn 0.98104828 -0.19305309 -1.6576277e-2
vn 0.40571879 0.38227639 -0.83021505
vn -0.31899196 -0.13084358 -0.93868210
vn -0.14665369 -0.98735642 -6.0166425e-2
vn 0.26488737 0.52310783 -0.81005733
vn -0.74250101 -0.47225527 -0.47504443
vn 0.96118454 -0.17318968 -0.21477804
vn 0.40652080 -0.85635629 -0.31842541
vn 0.81217431 -0.36233878 -0.45725650
vn -0.21457361 -0.91943651 -0.32953706
vn 0.13155985 0.65643518 -0.74282223
vn -0.61667547 0.16683996 -0.76933465
vn 1.3484446e-2 0.77451075 -0.63241701
vn -0.84118373 5.3188549e-2 -0.53812723
vn -8.2477295e-2 0.87047257 -0.48525767
vn -0.88345148 -0.44177339 -0.15604407
vn -0.15074795 0.93874313 -0.30989740
vn -0.96679466 0.17879948 -0.18258925
vn -0.18736005 0.97535519 -0.11652667
vn -0.89516616 0.44533063 1.8925557e-2
vn -0.19018563 0.97818082 8.3616427e-2
vn -0.95712345 -0.25763283 0.13243877
vn -0.15906069 0.94705588 0.27889938
vn -0.81217431 0.36233878 0.45725650
vn -9.5793961e-2 0.88378915 0.45797407
vn -0.85408337 -0.14956882 0.49816740
vn 0.14956882 0.85408337 0.49816740
vn -8.6299884e-3 0.64479346 0.76430813
vn -0.64479346 8.6299884e-3 0.76430813
vn -0.50596257 -0.13020091 0.85267203
vn 0.35361968 0.65003249 0.67261496
vn 0.33487182 0.45312336 0.82615984
vn -0.57543909 -0.55857102 0.59738453
vn 0.47639440 0.31160081 0.82216380
vn -0.26488737 -0.52310783 0.81005733
g Part__Feature_color_4c4c4c
usemtl color_4c4c4c
s 1
f 61//61 67//67 62//62
f 62//62 63//63 61//61
f 62//62 112//112 63//63
f 63//63 64//64 61//61
f 63//63 93//93 64//64
f 63//63 112//112 93//93
f 64//64 65//65 61//61
f 64//64 66//66 65//65
f 64//64 93//93 66//66
f 65//65 67//67 61//61
f 65//65 70//70 67//67
f 66//66 70//70 65//65
f 66//66 73//73 70//70
f 66//66 76//76 73//73
f 66//66 83//83 76//76
f 66//66 93//93 83//83
f 67//67 87//87 68//68
f 67//67 111//111 62//62
f 68//68 69//69 67//67
f 68//68 87//87 69//69
f 69//69 71//71 67//67
f 69//69 72//72 71//71
f 69//69 76//76 72//72
f 69//69 87//87 76//76
f 70//70 74//74 67//67
f 71//71 75//75 67//67
f 72//72 75//75 71//71
f 72//72 76//76 75//75
f 73//73 74//74 70//70
f 73//73 77//77 74//74
f 73//73 81//81 77//77
f 74//74 78//78 67//67
f 75//75 79//79 67//67
f 76//76 79//79 75//75
f 76//76 80//80 79//79
f 76//76 81//81 73//73
f 76//76 83//83 80//80
f 76//76 87//87 81//81
f 77//77 78//78 74//74
f 77//77 81//81 78//78
f 78//78 84//84 67//67
f 79//79 82//82 67//67
f 80//80 82//82 79//79
f 80//80 83//83 82//82
f 81//81 84//84 78//78
f 81//81 85//85 84//84
f 81//81 87//87 85//85
f 82//82 88//88 67//67
f 83//83 88//88 82//82
f 83//83 89//89 88//88
f 83//83 91//91 89//89
f 83//83 93//93 91//91
f 84//84 86//86 67//67
f 85//85 86//86 84//84
f 85//85 87//87 86//86
f 86//86 87//87 67//67
f 88//88 90//90 67//67
f 89//89 90//90 88//88
f 89//89 91//91 90//90
f 90//90 92//92 67//67
f 91//91 92//92 90//90
f 91//91 93//93 92//92
f 92//92 94//94 67//67
f 93//93 94//94 92//92
f 93//93 95//95 94//94
f 93//93 99//99 95//95
f 93//93 110//110 99//99
f 93//93 112//112 110//110
f 94//94 96//96 67//67
f 95//95 96//96 94//94
f 95//95 97//97 96//96
f 95//95 99//99 97//97
f 96//96 98//98 67//67
f 97//97 98//98 96//96
f 97//97 99//99 98//98
f 98//98 100//100 67//67
f 99//99 100//100 98//98
f 99//99 101//101 100//100
f 99//99 103//103 101//101
f 99//99 110//110 103//103
f 100//100 102//102 67//67
f 101//101 102//102 100//100
f 101//101 103//103 102//102
f 102//102 104//104 67//67
f 103//103 104//104 102//102
f 103//103 105//105 104//104
f 103//103 106//106 105//105
f 103//103 107//107 106//106
f 103//103 110//110 107//107
f 104//104 105//105 67//67
f 105//105 108//108 67//67
f 106//106 107//107 105//105
f 107//107 108//108 105//105
f 107//107 109//109 108//108
f 107//107 110//110 109//109
f 108//108 109//109 67//67
f 109//109 111//111 67//67
f 110//110 111//111 109//109
f 110//110 112//112 111//111
f 111//111 112//112 62//62
