# Nv = 8  Nvt = 0  Nvn = 8  Npoly = 12
# Exported from Wings 3D 2.1.7
mtllib SolarPanel_6U.mtl
o Part__Feature
#8 vertices, 12 faces
v -7.5000000e-4 -0.10000000 -0.15000000
v -7.5000000e-4 -0.10000000 0.15000000
v -7.5000000e-4 0.10000000 -0.15000000
v -7.5000000e-4 0.10000000 0.15000000
v 7.5000000e-4 -0.10000000 0.15000000
v 7.5000000e-4 -0.10000000 -0.15000000
v 7.5000000e-4 0.10000000 -0.15000000
v 7.5000000e-4 0.10000000 0.15000000
vn -0.33333333 -0.66666667 -0.66666667
vn -0.66666667 -0.33333333 0.66666667
vn -0.66666667 0.66666667 -0.33333333
vn -0.57735027 0.57735027 0.57735027
vn 0.66666667 -0.66666667 0.33333333
vn 0.57735027 -0.57735027 -0.57735027
vn 0.66666667 0.33333333 -0.66666667
vn 0.33333333 0.66666667 0.66666667
g Part__Feature_color_cccccc
usemtl color_cccccc
s 1
f 1//1 5//5 2//2
f 1//1 6//6 5//5
f 1//1 7//7 6//6
f 2//2 3//3 1//1
f 2//2 4//4 3//3
f 2//2 8//8 4//4
f 3//3 7//7 1//1
f 3//3 8//8 7//7
f 4//4 8//8 3//3
f 5//5 8//8 2//2
f 6//6 7//7 5//5
f 7//7 8//8 5//5
